<svg width="40" height="40" fill="none" xmlns="http://www.w3.org/2000/svg"><path fill-rule="evenodd" clip-rule="evenodd" d="M0 19.968C0 8.958 8.958 0 19.968 0s19.969 8.958 19.969 19.968-8.958 19.969-19.968 19.969C8.957 39.937 0 30.979 0 19.969Zm27.773 15.61c-4.863-2.401-10.746-2.401-15.608 0a17.338 17.338 0 0 0 7.803 1.863c2.807 0 5.452-.681 7.805-1.862Zm2.44-1.487c-6.216-3.714-14.273-3.714-20.49 0-4.37-3.178-7.227-8.317-7.227-14.123h4.992v-2.495H2.695A17.409 17.409 0 0 1 7.373 7.89l2.888 2.888 1.765-1.765-2.798-2.797a17.362 17.362 0 0 1 9.492-3.657V6.24h2.497V2.56a17.362 17.362 0 0 1 9.492 3.656L27.91 9.013l1.765 1.765 2.888-2.888a17.41 17.41 0 0 1 4.678 9.582h-4.793v2.496h4.992c0 5.806-2.857 10.945-7.227 14.123ZM18.78 10.851c-.635 1.978-3.804 11.955-3.804 14.11a4.997 4.997 0 0 0 4.992 4.992 4.997 4.997 0 0 0 4.993-4.992c0-2.155-3.17-12.132-3.804-14.11-.332-1.034-2.045-1.034-2.377 0Zm1.188 16.606a2.5 2.5 0 0 1-2.496-2.496c0-1.02 1.263-5.496 2.496-9.543 1.234 4.047 2.497 8.522 2.497 9.543a2.5 2.5 0 0 1-2.497 2.496Z" fill="#2BD0D0"/></svg>